<?xml version="1.0" encoding="utf-8"?>
<svg viewBox="210.3971 -5.8047 512.002 511.6097" width="512px" height="512px">
  <path fill="#dd0000" d="M 216.517 421.995 C 215.397 396.505 233.737 364.795 263.647 353.205 L 305.827 352.765 L 307.007 353.955 C 292.177 373.695 286.077 392.795 282.697 404.895 C 277.487 423.485 290.037 438.705 309.497 434.385 C 323.107 431.355 343.867 423.895 363.167 410.065 C 363.257 410.145 363.347 410.225 363.437 410.295 L 363.007 452.195 C 352.027 479.655 323.747 500.085 294.917 501.025 C 298.867 486.495 315.207 453.885 292.337 468.895 C 276.297 479.415 247.187 495.875 225.627 491.285 C 217.737 450.105 270.597 406.245 238.537 413.985 C 231.357 415.725 223.977 418.605 216.517 421.995 L 216.517 421.995 Z" style="stroke-width: 2px; stroke: rgb(255, 255, 255);"/>
  <path d="M 720.097 -4.525 C 724.287 -1.195 722.297 11.105 717.817 25.735 C 711.347 46.835 700.337 74.805 697.107 81.735 C 686.767 103.895 672.297 127.755 655.217 152.025 L 564.547 61.355 C 588.867 44.375 612.767 29.955 634.887 19.555 C 641.497 16.445 668.657 5.945 689.667 -0.565 C 704.067 -5.025 716.407 -7.455 720.097 -4.525 L 720.097 -4.525 Z M 642.227 169.905 C 622.637 196.035 600.477 222.275 577.587 246.995 C 539.517 288.115 499.337 325.165 465.607 350.765 L 464.447 408.685 C 464.417 410.085 463.807 411.385 462.857 412.335 L 370.997 504.215 C 368.967 506.245 365.767 506.345 363.857 504.435 C 362.837 503.415 362.397 502.035 362.507 500.655 L 363.437 410.295 C 363.287 410.175 363.137 410.045 362.997 409.905 L 305.827 352.765 L 215.547 353.695 C 214.167 353.805 212.787 353.365 211.767 352.345 C 209.857 350.435 209.957 347.235 211.987 345.205 L 303.857 253.335 C 304.817 252.395 306.117 251.785 307.517 251.755 L 366.467 250.575 C 390.337 217.895 425.307 179.605 464.527 143.035 C 490.647 118.675 518.687 95.045 546.617 74.295 L 642.227 169.905 L 642.227 169.905 Z" style="stroke-width: 2px; stroke: rgb(255, 255, 255);"/>
</svg>